<?xml version="1.0" encoding="utf-8"?><!-- Uploaded to: SVG Repo, www.svgrepo.com, Generator: SVG Repo Mixer Tools -->
<svg width="800px" height="800px" viewBox="0 0 24 24" fill="none" xmlns="http://www.w3.org/2000/svg">
<path d="M12.2929 16.7071C11.9024 16.3166 11.9024 15.6834 12.2929 15.2929L14.5858 13H7C6.44772 13 6 12.5523 6 12C6 11.4477 6.44772 11 7 11H14.5858L12.2929 8.70711C11.9024 8.31658 11.9024 7.68342 12.2929 7.29289C12.6834 6.90237 13.3166 6.90237 13.7071 7.29289L17.7071 11.2929C18.0976 11.6834 18.0976 12.3166 17.7071 12.7071L13.7071 16.7071C13.3166 17.0976 12.6834 17.0976 12.2929 16.7071Z" fill="#A8A8A8"/>
<path fill-rule="evenodd" clip-rule="evenodd" d="M12 23C5.92487 23 1 18.0751 1 12C1 5.92487 5.92487 1 12 1C18.0751 1 23 5.92487 23 12C23 18.0751 18.0751 23 12 23ZM3 12C3 16.9706 7.02944 21 12 21C16.9706 21 21 16.9706 21 12C21 7.02944 16.9706 3 12 3C7.02944 3 3 7.02944 3 12Z" fill="#A8A8A8"/>
</svg>